<svg fill="none" height="47" viewBox="0 0 155 47" width="155" xmlns="http://www.w3.org/2000/svg"><g fill="#000"><path d="m.0775146 33.2134v-32.449789h5.7196454v32.449789z"/><path d="m20.4381 9.6723c-7.3333 0-12.40807 5.6192-12.40807 12.051 0 7.1782 5.52077 12.1232 12.46507 12.1232 6.5906 0 12.3097-4.8541 12.3097-12.1388 0-6.1257-4.7391-12.0354-12.3667-12.0354zm-.0673 5.4988c3.8377 0 6.6626 2.9772 6.6626 6.5728 0 3.8123-3.1145 6.5934-6.559 6.5934-4.0701 0-6.6315-3.2149-6.6315-6.5831 0-3.6919 2.8919-6.5831 6.5279-6.5831z"/><path d="m47.1755 9.6723c-7.3334 0-12.4082 5.6192-12.4082 12.051 0 7.1782 5.5208 12.1232 12.4651 12.1232 6.5906 0 12.3097-4.8541 12.3097-12.1388 0-4.2897-1.8641-6.1931-1.8641-6.1931l1.5854-.5418v-4.6262h-8.1236s-1.7611-.6743-3.9643-.6743zm-.0674 5.4988c3.8377 0 6.6626 2.9772 6.6626 6.5728 0 3.8123-3.1145 6.5934-6.559 6.5934-4.0701 0-6.6315-3.2149-6.6315-6.5831 0-3.6919 2.8919-6.5831 6.5279-6.5831z"/><path d="m53.7304 34.7996c0 3.8123-3.1145 6.614-6.559 6.614-4.07 0-6.6418-3.2459-6.6418-6.614h-5.8025c0 7.1782 5.5207 12.1232 12.4651 12.1232 6.5905 0 12.3096-4.8385 12.3096-12.1232z"/><path d="m61.8331 33.2134v-22.8668h5.7197v22.8668z"/><path d="m73.1066 33.2134v-17.7449h-3.067v-5.1219h3.067v-7.02202h5.7197v7.02202h3.1499v5.1219h-3.1499v17.7449z"/><path d="m68.4685 3.85192c0 2.08468-1.6957 3.77465-3.7875 3.77465s-3.7876-1.68997-3.7876-3.77465 1.6958-3.7746495 3.7876-3.7746495 3.7875 1.6899695 3.7875 3.7746495z"/><path d="m94.8352 9.6568c-7.3681 0-12.118 5.6222-12.118 12.273 0 6.8729 4.7657 11.9322 12.2371 11.9322 6.9697 0 10.3977-4.3371 10.3977-4.3371l-3.823-3.8156s-2.8871 3.103-6.5022 3.103c-3.0135 0-5.423-1.6762-6.2636-4.7501h17.8218v-1.5696c0-6.263-3.637-12.8358-11.7498-12.8358zm-.1814 5.0186c2.6349 0 5.3294 1.4049 5.9322 4.7605h-11.9782c.4744-2.3588 2.545-4.7605 6.046-4.7605z"/><path d="m120.892 33.8649c-7.389 0-12.424-5.6085-12.424-12.2213 0-6.8245 5.69-11.99113 12.4-11.99113 6.486 0 9.807 4.56343 9.807 4.56343l-3.99 3.9584s-2.312-2.9761-5.844-2.9761c-3.915 0-6.592 2.9849-6.592 6.5329 0 3.7463 2.847 6.6206 6.548 6.6206 3.589 0 5.882-2.9713 5.882-2.9713l4.03 3.9562s-3.288 4.5283-9.817 4.5283z"/><path d="m132.79 33.2299v-32.54887h5.72v11.95867s2.19-2.98718 6.954-2.98718c5.989 0 9.459 4.43698 9.459 10.11178v13.4656h-5.72v-12.6041c0-3.8124-2.382-5.3941-5.02-5.3941-3.006 0-5.673 1.7049-5.673 5.6891v12.3091z"/></g></svg>