<svg fill="none" height="95" viewBox="0 0 85 95" width="85" xmlns="http://www.w3.org/2000/svg" xmlns:xlink="http://www.w3.org/1999/xlink"><clipPath id="a"><path d="m0 0h85v95h-85z"/></clipPath><g clip-path="url(#a)"><g fill="#0076c1"><path d="m12.2672 16.2033c-.6434.3145-1.9425.7019-3.86942.7019-5.33575 0-8.39778-3.6762-8.39778-8.36663 0-5.5838 3.90173-8.53857 8.75217-8.53857 1.88043 0 2.87403.360497 3.51393.701141l-.5927 3.339309c-.7125-.31609-1.4687-.60397-2.77467-.60397-2.30996 0-4.76021 1.37616-4.76021 5.04044 0 3.27788 1.95373 5.01168 4.7795 5.01168 1.11928 0 1.87888-.2199 2.75558-.623z"/><path d="m21.127 4.14098c-1.4374 0-2.8284.65281-3.5366 1.70139h-.0436v-5.7838983l-3.6156 1.2539083v15.08992h3.6156v-7.04874c0-1.01775.6606-2.11257 1.9274-2.11257 1.3553 0 1.8773 1.0687 1.8773 2.62328v6.53833h3.6188v-7.03833c0-3.59296-1.5383-5.22329-3.8433-5.22329z"/><path d="m30.4247 11.642c.133 1.5284 1.3985 2.3406 3.3541 2.3581 1.1784.0091 2.5485-.3341 3.4612-.8728l.5456 2.819c-1.3738.6912-2.9431.9589-4.5406.9589-4.3039 0-6.6107-2.5929-6.6107-6.5655 0-3.84265 2.4805-6.32224 6.1976-6.32224 3.8308 0 5.548 2.82546 5.548 6.36564 0 .373-.0459.9807-.0871 1.2589zm4.344-2.57758c0-.88766-.4324-2.43989-2.1063-2.43989-1.4677 0-2.1598 1.26566-2.2625 2.43989z"/><path d="m42.6301 16.4024-3.9951-11.88079h3.9891l2.1704 8.40399h.0731l2.1707-8.40399h3.9906l-3.9948 11.88079z"/><path d="m52.054 8.42887c0-1.74789-.0548-2.88817-.1291-3.90749h3.4063l.1033 2.20844h.0915c.5961-1.74789 1.7402-2.41193 2.9168-2.47881.5593-.03265.8621.00705 1.2084.07419v3.47384c-.3314-.06505-.9891-.14159-1.4515-.09901-1.3915.12827-2.2335 1.1421-2.4698 2.30927-.0474.2419-.072.5105-.072.8247v5.5681h-3.6026v-7.97323z"/><path d="m72.3577 10.4612c0 3.8939-2.342 6.4438-6.1371 6.4438-3.7958 0-6.1394-2.5499-6.1394-6.4438 0-3.89438 2.3436-6.44399 6.1394-6.44399 3.7951 0 6.1371 2.54987 6.1371 6.44399zm-3.7486 0c0-1.93333-.6634-3.61617-2.3885-3.61617-1.7274 0-2.3874 1.68258-2.3874 3.61617 0 1.9352.66 3.6155 2.3874 3.6155 1.7256 0 2.3885-1.6803 2.3885-3.6155z"/><path d="m73.9657 8.3095c0-1.48274-.0542-2.74866-.1306-3.78784h3.4062l.078 1.66221h.073c.4718-.77298 1.7201-2.04282 3.6679-2.04282 2.3837 0 3.9398 1.63034 3.9398 5.12769v7.13396h-3.6126v-6.58799c0-1.52872-.5236-2.5739-1.8309-2.5739-1.0024 0-1.6249.7061-1.8559 1.38295-.0856.24791-.1205.58463-.1205.92476v6.85388h-3.6144z"/><path d="m.129028 47.8976v-28.3356l42.440272 14.1686v28.2694z"/></g><path d="m.139771 47.8997 42.429629 14.167 42.4272-14.167v-28.3343z" fill="#00adf0"/><path d="m.131703 80.8345-.003651-28.3448 42.437448 14.1679v28.3424z" fill="#b10c3a"/><path d="m84.9987 52.4897-84.862347 28.3396 42.429047 14.1707 42.4333-14.1751z" fill="#e01d37"/></g></svg>